<svg xmlns="http://www.w3.org/2000/svg" viewBox="0 0 6369.95 1496"><defs><style>.cls-1{fill:#c44c27;}.cls-2{fill:#35495e;}.cls-3{fill:#2c3e50;}.cls-4{fill:#faf067;stroke:#ba4627;}.cls-11,.cls-12,.cls-20,.cls-4,.cls-7,.cls-8,.cls-9{stroke-miterlimit:10;}.cls-4,.cls-8{stroke-width:3px;}.cls-5,.cls-7{fill:#ecf0f1;}.cls-6{fill:#6d6e71;}.cls-20,.cls-7{stroke:#231f20;}.cls-11,.cls-20,.cls-8{fill:none;}.cls-11,.cls-8,.cls-9{stroke:#6d6e71;}.cls-9{fill:#1b0d0b;}.cls-11,.cls-12,.cls-20,.cls-9{stroke-width:2px;}.cls-10{fill:#b03924;}.cls-12{fill:#f8a37d;stroke:#ed1c24;}.cls-13{fill:#bcbec0;}.cls-14{fill:#d25627;}.cls-15{fill:#045b5d;}.cls-16{fill:#70c7af;}.cls-17{fill:#80c78c;}.cls-18{fill:#26b99a;}.cls-19{fill:#00a651;}.cls-21{opacity:0.1;font-size:50px;fill:#fff;font-family:Orbitron-Bold, Orbitron;font-weight:700;}.cls-22{letter-spacing:0.02em;}.cls-23{letter-spacing:-0.05em;}.cls-24{letter-spacing:-0.02em;}.cls-25{letter-spacing:-0.01em;}.cls-26{fill:#f15a29;}</style></defs><g id="Layer_1" data-name="Layer 1"><ellipse class="cls-1" cx="746" cy="748" rx="746" ry="748"/><path class="cls-2" d="M189,624.86c3.83-42.35,26.58-70.69,35.5-81.5A166.1,166.1,0,0,1,277.67,501a180.55,180.55,0,0,1,74.9-16,190.82,190.82,0,0,1,32.43,3.3,212.65,212.65,0,0,1,71.33,27.33c-17.45-3.92-63.73-12.18-105.94,7.15-10.17,4.65-23.57,11.44-34.64,25.6-7.74,9.9-10.71,20-16.65,40.32-5.57,19-5.52,27.41-13.32,41.61a99.86,99.86,0,0,1-12.66,17.92,75.35,75.35,0,0,0-18.26-8.74,61.78,61.78,0,0,0-21-1.5c-24.36,2.85-40.07,24.6-42.32,27.81A137.82,137.82,0,0,1,189,624.86Z" transform="translate(0 -141.36)"/><path class="cls-3" d="M189.63,657c0,.48,5.25,1.11,28.42,1.7.64-1,5-10.92,12.44-16.21s18.21-5.95,19.54-3.42c1.57,3-11.18,8-10.66,16.22.43,6.83,10,14.13,19.54,13.65a19.08,19.08,0,0,0,9.77-3.41,9.68,9.68,0,0,1,2.66-10.24,10.68,10.68,0,0,1,11.55-1.71l45.3-23.89c6.72,5.13,15.4,10.47,20.43,7.68,3.31-1.84,2.49-5.8,5.32-7.68,6.56-4.36,24.6,7.62,35.53,18.77,18.4,18.77,24.24,42.9,25.76,61.45.15,1.81-15.16-109.75-15.16-109.75s-2.14-13.82-3.49-30.21c0-.09,0-.25,0-.45a31.93,31.93,0,0,1,.93-9.79c2.64-10.49,11.68-23.81,23.09-23.9,7.14-.05,12.5,5.11,15.1,7.68,10.73,10.63,11,24.41,12.43,32.43a86,86,0,0,0,3.25,9.56c7,17.1,17.34,26.35,59.16,60.84,16.14,13.31,21.83,17.89,30,24,10.25,7.66,19.45,14,27,19,7.12-1.16,17.12-3,28.92-5.87,55.14-13.4,132.64-32.22,172.58-95.13,35-55.12,34.85-134.18-2-196-52.62-88.26-152.07-94.41-165.5-95-15.8-.7-84-3.71-131.2,43.91-26.13,26.36-41,63.31-38.19,90.46.52,5.14,1.93,18.73,11.54,31.58,3.82,5.11,10.11,13.41,21.32,16.22,8.92,2.23,24.28,1.81,32-9.67,7.6-11.26,2.27-24.83,1.72-26.18,0,0-.71-1.12-9.77-9.39l-13.32-1.7a89,89,0,0,1,16.87-26.46c25.86-27.85,66.94-34.73,99.48-27.31,11.23,2.56,37.45,8.54,55,32.54,19.29,26.35,19.22,62.2,7,87.5-20.29,42-72.65,52-104,58a212,212,0,0,1-42.4,3.74,103.86,103.86,0,0,0-23.09-29c-36.81-32-84.41-26-94.15-24.75-10.07,1.28-58.72,8.63-79.94,42.68a110.64,110.64,0,0,0-12.48,28c-3.25,12.77-2.09,20.45-7.06,37.74-2.05,7.13-3.44,11.62-5.33,15.36C270.47,660.51,189.61,655.11,189.63,657Z" transform="translate(0 -141.36)"/><path class="cls-4" d="M414.33,768.31c20.79-4.46,41.38-.23,48,1.28a154.23,154.23,0,0,1,28.64,9.6c39.91,17.94,82.8,56.9,93.26,66.57l-97.21-1a41.43,41.43,0,0,0-16,6.11c-15.3,10-19.35,28.65-20.63,34.15-9.51,40.85-57.71,182.4-76.34,229.9,0,0-52.46,133.73-70.9,201.92-1.28,4.73-4.27,16.24,1.33,26.24a30.9,30.9,0,0,0,14,12.8,32.86,32.86,0,0,0,16,2.56c25.56-1.93,131.72,25.19,420.6,45.91,0,0,130.79,13.06,147,51.38a164.84,164.84,0,0,1,7.72,24c1.38,6.08,1.9,10.17,2.27,12.53.56,3.45,5,31.11,21.06,43.14,15.8,11.82,43,8.66,59.33-4.33,21.69-17.26,27.19-54.21,8-86-18.17-6.31-24.89-3.85-27.77-.81-8.8,9.28,8.65,34.06-.89,42.81-3.91,3.57-11.17,3.41-15.34.66-5-3.26-3.89-9.12-7.33-24.33a115,115,0,0,0-7.74-24.26A77.56,77.56,0,0,0,926,1416.36a67,67,0,0,0-6-5.44,74.07,74.07,0,0,0-18-10.56c-34.09-14.33-58-18-58-18-54.72-8.41-82.09-12.62-88-13-27.53-1.79-88-12.56-209-34.1-47.61-8.48-108.43-19.84-179.29-34.42L515.59,893.77a102.07,102.07,0,0,1,47.3,3.2c8.58,2.75,18.28,6,26.64,14.72,6.66,7,8.85,13.84,13.32,27.52,4.37,13.36,2.48,20.27,4,39.68a337.53,337.53,0,0,0,4.66,35.21c3.89,16.17,8.69,33.31,14.66,51.2a624.06,624.06,0,0,0,34,81.93c2.31,5.23,5.48,12.92,8.66,22.4,2.26,6.76,4.12,13.17,5.67,19.23a284.66,284.66,0,0,1,7.65,44.14c1.85,23.24,4.19,52.73-10.52,73.43-25.51,35.9-88.52,26-91.5,25.5,40.09,4.55,75.86,9.21,106.5,13.5,47.18,6.61,36.94,6,79.4,11.93,48.92,6.83,69.49,9.11,103,18,18.21,4.83,35.77,10.46,54,24a134.76,134.76,0,0,1,32,34,489.06,489.06,0,0,0-32-60c-28.17-45-47.68-59.72-69-87-10.25-13.12-70.37-90-64.63-186.5,1.34-22.49,7.23-62.26,35-108.29.65-1,1.21-1.79,1.66-2.44,4.8-6.86,25.45-35.46,64-59.52,28.72-18,57-26.54,83.94-32.64,84.64-19.14,170.92-16.32,220.1-12.61l342.79,244.95q-13.89,150.53-27.79,301a103.74,103.74,0,0,1-16,38.9c-5.34,7.85-18.44,27.11-38,33.1-29.53,9.05-43.81-21.35-79-23-53-2.49-108.71,62.19-99,85,2.17,5.1,8.4,10,24,12,36.58-45.44,62.89-53.55,81-51,24.47,3.45,31,26,60,29,30.9,3.24,56.49-18.91,67-28,38.3-33.15,44-80,45.11-93.66l59.28-320-385-282.27c-68.82-1-124.92-.91-163.2-.64-64.39.46-128.79.15-193.18.64-70.72.54-92.18,1-126.57-6.4-42.75-9.26-74.26-24.06-110.58-42.24C600.27,764.45,536.67,732,492,697.36c-22.48-17.45-33-29.89-34.37-44.9-.74-8,1.21-15.44-4-24.32-4.19-7.15-13.43-15.93-24.14-14.78-9.89,1.07-15.74,10-19.83,16.33a50.85,50.85,0,0,0-8,24.67c-4.08-4.6-22.87-24.77-53.67-27a79,79,0,0,0-43.58,9.74q-2.07,1.75-4.14,3.57c-6,5.21-11.55,10.46-16.78,15.69a57.39,57.39,0,0,0-44.5-20c-25.95.77-42.09,22.09-44.27,25.06-10.2,29-18.13,53.27-23.73,70.94-18.53,58.5-22.92,80.41-14.46,86.09,3.57,2.4,8.38,1.2,9.77.86,11.86-3,10.57-18.6,25.69-33.95,4.29-4.36,13.42-13.63,25-13a28,28,0,0,1,15.92,6l14.81,11.72.29.23a11.54,11.54,0,0,0,3.65,7.07c5.06,4.38,15.08,3.4,23.88-3.66,3.08,6.83,10.51,20.51,24.87,25.61,5.45,1.93,16.22,4.15,43.53-8.54C385.74,791.34,385.49,774.51,414.33,768.31Z" transform="translate(0 -141.36)"/><path class="cls-5" d="M709,663.36" transform="translate(0 -141.36)"/><path class="cls-6" d="M186,747.36l.26-2c.18-1.33.41-3.28.77-5.75s.9-5.47,1.57-8.89c.36-1.71.75-3.53,1.15-5.45s1-3.89,1.55-6,1.26-4.22,2-6.42,1.61-4.46,2.66-6.72a50.73,50.73,0,0,1,8.29-13.38,13.68,13.68,0,0,1,1.44-1.51l1.55-1.46a29.87,29.87,0,0,1,3.53-2.5c.32-.18.62-.39.94-.56l1-.48,1-.47c.34-.14.7-.26,1.05-.38l1.05-.37.06,0,.16,0,.13,0,.25-.06.51-.11,1-.23.51-.12.58-.07a24.72,24.72,0,0,1,9,.51c2.87.63,5.61,1.5,8.33,2.25a60.84,60.84,0,0,0,8.15,1.83l2,.27c.68.06,1.37.08,2.05.13,1.36.13,2.73,0,4.08,0s2.71-.24,4.05-.35l4-.66,2-.46,1.9-.51c1.27-.38,2.53-.78,3.76-1.23a95.35,95.35,0,0,0,13.71-6.54c4.23-2.42,8.22-4.8,11.88-7,7.29-4.41,13.15-8.47,17.14-11.47s6.22-4.77,6.22-4.77l-1.5,1.39c-1,.9-2.44,2.24-4.36,3.84a177.13,177.13,0,0,1-16.58,12.47c-3.58,2.36-7.45,4.9-11.67,7.46a88,88,0,0,1-13.92,7.09c-1.27.48-2.58.93-3.91,1.35l-2,.59-2,.49-4.22.8c-1.42.13-2.85.33-4.3.4s-2.9.13-4.36,0c-.73,0-1.46-.07-2.19-.13l-2.18-.27a63.9,63.9,0,0,1-8.54-1.86c-2.77-.79-5.47-1.66-8.15-2.26-.67-.13-1.34-.29-2-.39l-2-.25-2,0c-.64,0-1.25.1-1.87.14l-.47,0-.52.11-1,.23-.51.11-.26.06-.13,0h0l-.06,0-.92.32-.92.31-.88.4-.88.4c-.29.14-.56.33-.84.49a24.73,24.73,0,0,0-3.2,2.18l-1.44,1.29a12.57,12.57,0,0,0-1.35,1.38,51.12,51.12,0,0,0-8.2,12.53,108.55,108.55,0,0,0-5.07,12.7q-.94,3-1.8,5.84c-.51,1.87-1,3.65-1.45,5.32-.87,3.36-1.52,6.31-2.09,8.74s-.91,4.37-1.18,5.68S186,747.36,186,747.36Z" transform="translate(0 -141.36)"/><path class="cls-7" d="M268,670.36" transform="translate(0 -141.36)"/><path class="cls-8" d="M227.67,737.36c6.17-3,19.88-9.78,41.33-24.67a488.36,488.36,0,0,0,58-47.33c-31.82,26.14-58.64,35.51-78,39-9.62,1.73-25.87,3.54-39,16-10,9.46-14.27,21.39-16.33,30.33A256.84,256.84,0,0,0,227.67,737.36Z" transform="translate(0 -141.36)"/><path class="cls-9" d="M200,743.36a50.94,50.94,0,0,1,49-32.67,81,81,0,0,1-49,32.67Z" transform="translate(0 -141.36)"/><path class="cls-10" d="M269.93,812.71c-4.83-4.36-.22-21,9.44-32.58,8.18-9.79,14.31-9.15,23.28-18.94a59.21,59.21,0,0,0,13.19-24.46c-.69,17.07-6,25.21-11.21,29.46-4.85,4-10.12,5-13,11.4-1.73,3.87-2.27,9-2.87,14.78-.54,5.14-.14,5.33-.79,7.91-.71,2.85-2.39,9.57-8.12,12.28C277.48,813.7,272.49,815,269.93,812.71Z" transform="translate(0 -141.36)"/><path class="cls-11" d="M248,790.29c16.65-8.85,22-18,23.47-25.23,2.14-10.68-4.06-18,1.13-25.87,3.71-5.58,12.36-10.1,18.52-6.76,4.91,2.65,8.39,10.38,5,15.66-2.93,4.57-10.38,6.34-14.33,3-2.44-2.05-4.15-6.56-1.94-9.76a7.41,7.41,0,0,1,7-2.79" transform="translate(0 -141.36)"/><path class="cls-12" d="M882.22,725.44c.46,5.34,17.76,3.22,23.09,12.8,5.49,9.87-5.82,24.77-7.1,26.46-8.76,11.53-25.07,16.82-28.43,17.92-23.41,7.66-53.26,2.91-57.28,2.24A533.44,533.44,0,0,1,678.82,751c-13.27-5.27-71-28.79-135.82-78.68a608.86,608.86,0,0,1-92-87.5,139.61,139.61,0,0,0-5.55-24.45c-3.18-9.76-4.86-14.73-9.45-19-1.13-1.06-10.48-9.6-21-7-1.57.39-8.18,2.26-14.18,12.72-7.24,12.61-6.14,21.38-3.55,52.91.59,7.29,2.35,24,5.16,57.38,1.18,14,1,13,1.24,14.66,5.2,34.35,27.87,58.23,30,57,1.67-1-9.75-17.21-16-48.34-2-10-6.95-35.72,3-41.66,2.56-1.53,7.54-2.6,12.33-2.34.91,0,5.89.38,9.33,2.34,8.1,4.59,8.16,18.44,8.67,23.33,2,19.45,25,31.22,73.28,60.52,52.15,31.68,39.51,26.58,63.72,40,9.79,5.42,71.07,39,131.68,54.75,10.91,2.84,21.79,5.12,21.79,5.12,20.5,4.21,38.56,6.19,59.92,8.54,19.58,2.14,57.35,5.49,101.26-2.57,15.51-2.84,27.46-6.32,36.41-16.21,13.35-14.75,11.93-34.8,11.55-40.11a60.93,60.93,0,0,0-11.55-31.58c-8.49-11.25-18.59-16.15-25.75-19.63-10.07-4.87-15-4.68-17.77-4.26C889.17,717.87,881.92,721.92,882.22,725.44Z" transform="translate(0 -141.36)"/><path class="cls-11" d="M261.67,699" transform="translate(0 -141.36)"/><path class="cls-3" d="M344.83,624.47l1,.54a15.55,15.55,0,0,1,2.49,1.87,19.53,19.53,0,0,1,3.15,3.71,24,24,0,0,1,2.81,5.69,27.37,27.37,0,0,1,1.47,7.39c.06.67.06,1.37.07,2s0,1.41-.08,2.11a29.25,29.25,0,0,1-.62,4.28,27.39,27.39,0,0,1-1.28,4.3,20.05,20.05,0,0,1-2.13,4.14,12.8,12.8,0,0,1-7.77,5.66,7.82,7.82,0,0,1-5.09-.64,10.46,10.46,0,0,1-3.63-3.38,13.41,13.41,0,0,1-2.41-8.95,11.25,11.25,0,0,1,4.12-7.63,7.38,7.38,0,0,1,3.85-1.59,5.43,5.43,0,0,1,2.05.25,9.79,9.79,0,0,1,.92.45,5.38,5.38,0,0,1,.76.57,8.3,8.3,0,0,1,2.86,5.78,5.45,5.45,0,0,1-2,4.47,4.19,4.19,0,0,1-3,.92,3.44,3.44,0,0,1-.81-.14l-.27-.07.27,0a5.06,5.06,0,0,0,.81.06,4.21,4.21,0,0,0,2.72-1.12,4.87,4.87,0,0,0,1.51-4.12,7.7,7.7,0,0,0-2.85-5c-1.58-1.42-4.1-.95-5.92.61a9.93,9.93,0,0,0-3.3,6.63,11.88,11.88,0,0,0,2.24,7.67,10.7,10.7,0,0,0,1.33,1.57,7.88,7.88,0,0,0,1.61,1.16,5.76,5.76,0,0,0,3.8.44,9.38,9.38,0,0,0,3.72-1.73,12.79,12.79,0,0,0,2.86-3,24,24,0,0,0,3.29-7.75,30.2,30.2,0,0,0,.69-4c.09-.67.11-1.3.16-2s0-1.32,0-2a28.18,28.18,0,0,0-1.07-7.11,23.09,23.09,0,0,0-5.14-9.46,19.43,19.43,0,0,0-2.28-2.06Z" transform="translate(0 -141.36)"/><path class="cls-3" d="M380.08,632.22s.23.64.57,1.87a29.75,29.75,0,0,1,1,5.47,19.26,19.26,0,0,1-1.14,8.57,16.15,16.15,0,0,1-2.93,4.53,24,24,0,0,1-4.5,3.93,23.43,23.43,0,0,1-2.78,1.6,21.34,21.34,0,0,1-3.14,1.1,6.56,6.56,0,0,0-2.7,1.36,4.29,4.29,0,0,0-1.22,2.64,3.63,3.63,0,0,0,.76,2.81,4.93,4.93,0,0,0,2.68,1.39,9.37,9.37,0,0,0,6.62-1c2-1.17,3.27-3.52,5.53-5.3a10.19,10.19,0,0,1,3.87-1.88,9,9,0,0,1,4.4-.25,4.22,4.22,0,0,1,2.19,1.28,5,5,0,0,1,.39.52,5.57,5.57,0,0,1,.31.58,5.83,5.83,0,0,1,.34,1.18,8.79,8.79,0,0,1-.49,4.48,10.55,10.55,0,0,1-2.49,3.7,28.21,28.21,0,0,1-3.26,2.71c-.55.4-1.13.8-1.69,1.18s-1.18.77-1.78,1.12l-1.76,1a5,5,0,0,0-.7.48c-.18.16-.16.18-.17.21h0s0-.18,0-.06v.25s0,0,0,0l0,0,.07.13a2.4,2.4,0,0,0,.47.58,6.19,6.19,0,0,0,1.43,1,7.18,7.18,0,0,0,3.41.76,6.18,6.18,0,0,0,3.26-1.25,15.22,15.22,0,0,1,3.69-2,10.64,10.64,0,0,1,2.06-.49,15.32,15.32,0,0,1,2.06-.18,6.09,6.09,0,0,1,2.23.36,3.84,3.84,0,0,1,1.88,1.51,6.18,6.18,0,0,1,.71,4.28,7.61,7.61,0,0,1-.58,2l-.19.43-.27.47a7.27,7.27,0,0,1-.61.86,11.32,11.32,0,0,1-3,2.5l-1.51.92a7,7,0,0,0-.61.44c-.13.15-.22.26-.19.26h0s0-.22,0-.09l0,0,.06.21,0,0,0,0a2.28,2.28,0,0,0,.55.33,8.26,8.26,0,0,0,1.5.51c1.07.28,2.16.48,3.24.7a21.26,21.26,0,0,1,3.23.83l.74.26.76.36a11.26,11.26,0,0,1,1.42.77,22,22,0,0,1,7.41,8.49c.81,1.46,1.48,2.87,2.11,4.15a38.89,38.89,0,0,1,1.63,3.62,37.45,37.45,0,0,1,1.61,5.3c.28,1.25.39,1.92.39,1.92s-.14-.67-.49-1.89a42,42,0,0,0-1.87-5.18c-.47-1.09-1.06-2.26-1.75-3.51s-1.42-2.63-2.27-4a22.12,22.12,0,0,0-7.35-7.89,9.46,9.46,0,0,0-1.3-.68l-.68-.3-.75-.24a19.14,19.14,0,0,0-3.07-.7c-1.08-.2-2.19-.37-3.34-.64a10.12,10.12,0,0,1-1.76-.55,3.39,3.39,0,0,1-.92-.56A2,2,0,0,1,391,691l-.07-.21,0,0a1,1,0,0,1,0-.2v-.21a1.57,1.57,0,0,1,.22-.76,3.36,3.36,0,0,1,.39-.49,6.28,6.28,0,0,1,.81-.64l1.51-1a9.84,9.84,0,0,0,2.53-2.2,5.4,5.4,0,0,0,.44-.66l.19-.33.18-.43a6,6,0,0,0,.44-1.58,4.49,4.49,0,0,0-.46-3.06,2.83,2.83,0,0,0-2.65-1.07,13,13,0,0,0-1.82.18,9.39,9.39,0,0,0-1.74.42,13.37,13.37,0,0,0-3.27,1.79,11.31,11.31,0,0,1-1.89,1,6.55,6.55,0,0,1-1.11.36l-.61.12-.51,0a9,9,0,0,1-4.39-.92,7.79,7.79,0,0,1-1.91-1.28,4.75,4.75,0,0,1-.82-1l-.16-.32a2.41,2.41,0,0,1-.15-.43c0-.07-.05-.17-.06-.22v-.25a.72.72,0,0,1,0-.19v-.12a2.21,2.21,0,0,1,.81-1.51,6.53,6.53,0,0,1,1-.69l1.76-1c.57-.34,1.13-.7,1.66-1.06l1.65-1.17c2.15-1.55,4.26-3.25,5.11-5.45a7.07,7.07,0,0,0,.43-3.49,2.3,2.3,0,0,0-1.81-2.08,7.43,7.43,0,0,0-3.5.21,8.41,8.41,0,0,0-3.22,1.53,20.68,20.68,0,0,0-2.66,2.64,13.82,13.82,0,0,1-3.06,2.71,10.68,10.68,0,0,1-7.89,1.15,6.26,6.26,0,0,1-3.57-2.08c-.11-.14-.18-.25-.27-.38l-.06-.09a1,1,0,0,1-.09-.17l-.12-.24a4.54,4.54,0,0,1-.34-1,6.19,6.19,0,0,1-.08-2,5.7,5.7,0,0,1,1.74-3.46,7.76,7.76,0,0,1,3.26-1.58,21.12,21.12,0,0,0,3-1,20.12,20.12,0,0,0,2.67-1.45,23.44,23.44,0,0,0,4.41-3.64,15.22,15.22,0,0,0,3-4.17,18.69,18.69,0,0,0,1.43-8.26,33.32,33.32,0,0,0-.67-5.46C380.28,632.87,380.08,632.22,380.08,632.22Z" transform="translate(0 -141.36)"/><path class="cls-6" d="M814,831.54s-.41.08-1.16.27-1.86.5-3.24.94a39.37,39.37,0,0,0-4.83,2,35.28,35.28,0,0,0-5.75,3.44,31.65,31.65,0,0,0-5.7,5.41l-1.26,1.69c-.4.59-.75,1.22-1.14,1.84-.75,1.26-1.48,2.62-2.12,4a15.93,15.93,0,0,0-1.73,8.78,10.1,10.1,0,0,0,1.55,4.17,13,13,0,0,0,3.26,3.28c2.54,1.94,5.63,3.57,7.93,6.23a13.22,13.22,0,0,1,2.67,4.42c.14.41.32.77.43,1.22s.21.75.29,1.19a15.44,15.44,0,0,1,.32,2.49,25.09,25.09,0,0,1-1.54,9.1c-.44,1.36-.92,2.7-1.41,3.95l-.82,1.86c-.3.59-.59,1.17-.88,1.73A36.71,36.71,0,0,1,791.4,909a32.29,32.29,0,0,1-2.62,2.16l-1,.7s.32-.27.9-.79,1.41-1.3,2.42-2.34a38.74,38.74,0,0,0,6.76-9.77l.77-1.71c.23-.59.46-1.2.69-1.81l.64-1.93q.3-1,.6-2a25,25,0,0,0,1.21-8.56,14,14,0,0,0-.32-2.17c-.06-.34-.19-.73-.3-1.12a10.19,10.19,0,0,0-.39-1,12.31,12.31,0,0,0-2.38-3.82c-2-2.33-4.95-3.87-7.7-5.91A15.3,15.3,0,0,1,787,865.1a7.12,7.12,0,0,1-.68-1.21,6.6,6.6,0,0,1-.52-1.24l-.19-.59-.1-.29,0-.15,0-.1v-.12a12,12,0,0,1-.23-1.31,17.24,17.24,0,0,1,2.06-9.79,41.55,41.55,0,0,1,2.29-4.06c.43-.65.83-1.3,1.28-1.9l1.39-1.75a30.58,30.58,0,0,1,6.18-5.39,32.37,32.37,0,0,1,6.11-3.18,40.52,40.52,0,0,1,5-1.64c1.42-.36,2.55-.55,3.32-.67S814,831.54,814,831.54Z" transform="translate(0 -141.36)"/><path class="cls-6" d="M603.35,861.36l-.41.65c-.26.43-.68,1-1.15,1.85s-1.06,1.79-1.66,2.94a34.38,34.38,0,0,0-1.68,4,15.41,15.41,0,0,0-.87,4.87,8.23,8.23,0,0,0,1.65,5,10.08,10.08,0,0,0,2,1.91c.79.56,1.66,1.08,2.56,1.61a34.42,34.42,0,0,1,5.48,3.63,21.19,21.19,0,0,1,4.29,5.13,19.15,19.15,0,0,1,2.37,6A15.73,15.73,0,0,1,616,905a12.16,12.16,0,0,1-.31,1.37,8.62,8.62,0,0,1-.42,1.33,11.28,11.28,0,0,1-.5,1.23,12.16,12.16,0,0,1-.58,1.14,20.93,20.93,0,0,1-5.09,6,21.28,21.28,0,0,1-1.76,1.31l-.65.42a25.64,25.64,0,0,0,2.14-2,22.24,22.24,0,0,0,4.34-6.25c.17-.35.31-.73.45-1.11a10.5,10.5,0,0,0,.38-1.16,10.84,10.84,0,0,0,.3-1.22,8,8,0,0,0,.22-1.3,15.18,15.18,0,0,0-.32-5.46,18.93,18.93,0,0,0-2.3-5.41,19.31,19.31,0,0,0-3.94-4.61,33.47,33.47,0,0,0-5.15-3.49,15.11,15.11,0,0,1-5-4.21l-.4-.63c-.19-.3-.27-.5-.41-.76a9.1,9.1,0,0,1-.55-1.51,10.33,10.33,0,0,1-.32-3,15.22,15.22,0,0,1,1.29-5.25,25.58,25.58,0,0,1,2.11-3.94c.73-1.11,1.4-2,2-2.79s1.07-1.3,1.38-1.69Z" transform="translate(0 -141.36)"/><path class="cls-13" d="M580.5,844.86l22,16.5-32-15.5Z" transform="translate(0 -141.36)"/><path class="cls-14" d="M607,917.36c12,12.71,19.69,14.06,24.5,13,5.4-1.19,7.07-5.39,13.5-8.5,8.84-4.28,18.45-2.53,25-.5l22-23.5,22.5,21c6.89-2.51,14.9-3.87,22.5-1,7.84,3,8.59,7.9,17,10.5,11.52,3.57,21.79-2.09,22.5-2.5a29.16,29.16,0,0,0,12-13.5c1.46,2.63,4.94,9.76,3,18-1.39,5.89-4.83,9.33-9.5,14a68.33,68.33,0,0,1-27,16c-4.84,1.55-10.42,3.28-18,3a45.76,45.76,0,0,1-17-4l-21,28-24-27a40.25,40.25,0,0,1-24,7c-16-.73-26-11.65-30-16C608.94,938.19,607.31,922.72,607,917.36Z" transform="translate(0 -141.36)"/><path class="cls-15" d="M670.67,921.69,692,897.36l23.67,22.33L702,942.36l18.33,18-21.66,28L671,963l13-20.34Z" transform="translate(0 -141.36)"/><path class="cls-15" d="M702.33,926" transform="translate(0 -141.36)"/><path class="cls-15" d="M1134,692.36" transform="translate(0 -141.36)"/><path class="cls-15" d="M374.33,1127c23.19-4.75,30-11.49,31.34-17.34,1.2-5.41-2.43-9.63.66-14.66s8.93-4.07,15.34-10a26.89,26.89,0,0,0,6.66-10c2.2,1.53,11.41,7.61,22.67,5.33,14.08-2.85,23.48-17.14,23.33-30.67s-9.81-22-10.66-22.66c-9.4-7.9-20.37-7-24-6.67-2.8.23-13.48,1.13-21.34,9.33-6.54,6.83-11,18.66-9.33,29.34.67,4.18,2,7.46,0,10.66-2.17,3.53-5.66,2.52-11.17,6.84-1.81,1.42-6,4.67-7.33,9.83-.83,3.12.08,4.25.5,11.33a64.52,64.52,0,0,1,0,10.67C390.37,1112.2,387.73,1119.59,374.33,1127Z" transform="translate(0 -141.36)"/><path class="cls-15" d="M371.83,1126c1.72.54,11.85,3.57,21.84-2.17,1.36-.78,11.36-6.52,12.33-15.67.55-5.15-1.94-9.83,1.17-13.66a15.36,15.36,0,0,1,3.16-2.67,35.58,35.58,0,0,1,7.67-4c4.49-2.1,6.81-6.16,9-10,3.26-5.72,4.05-11.7,4.83-15.33.54-2.48.92-4.56,1.17-6a8.65,8.65,0,0,0,1,5c1.61,2.83,4.53,3.73,6.5,4.33s6.56,2,11.17-.5c6.32-3.44,6.65-11,6.66-11.33a14.13,14.13,0,0,0-4-10c-4.4-4.6-10.34-4.53-12.33-4.5a19.85,19.85,0,0,0-11,3.66,21.9,21.9,0,0,0-6.17,6.34c-3,4.72-3.49,9.52-3.83,13-.47,4.77.33,5.54-.67,9.16a20.26,20.26,0,0,1-3.83,7.5,20.78,20.78,0,0,1-5.33,4.5c-3.54,2.11-4.85,1.5-7,3.17-2.75,2.13-3.53,5.39-4,7.33-1.51,6.24,1.57,8.24.33,15.17a17.68,17.68,0,0,1-2.83,7.33c-2.55,3.66-6,5.23-8.84,6.5A35.77,35.77,0,0,1,371.83,1126Z" transform="translate(0 -141.36)"/><path class="cls-15" d="M1445.64,1015.69c-12.64-16.84-21.09-19.68-26.75-18.4-5.23,1.19-7.65,5.81-13.23,5.31s-6.85-5.59-14.43-8.39a26.25,26.25,0,0,0-11.29-1.4c.57-2.39,2.6-12.25-3.51-20.44-7.65-10.24-23.72-12.13-35.65-6.62a31.87,31.87,0,0,0-16.2,17.66c-3.57,10.73,1.23,19.22,2.82,22,1.23,2.17,5.91,10.44,16,13.51,8.43,2.56,20.54,1.49,29.37-4.16,3.46-2.2,5.9-4.56,9.45-4.25,3.91.34,4.29,3.57,10.11,6.3,1.93.9,6.31,2.95,11.38,2,3.07-.58,3.73-1.76,9.86-4.92a67.1,67.1,0,0,1,9.44-4.26C1426.68,1008.65,1434.18,1007.83,1445.64,1015.69Z" transform="translate(0 -141.36)"/><path class="cls-15" d="M1445.66,1018.11a22.83,22.83,0,0,0-9.86-16.77c-1.18-.79-9.91-6.58-18.36-3.72-4.76,1.62-8,5.49-12.53,4.51a14.35,14.35,0,0,1-3.51-1.49,31.41,31.41,0,0,1-6.33-4.6c-3.5-2.79-7.93-3-12.13-3.29-6.25-.35-11.83,1.4-15.34,2.22-2.39.55-4.37,1.07-5.74,1.45a9.16,9.16,0,0,0,4.07-2.81c1.92-2.43,1.65-5.14,1.47-7s-.61-6.11-4.5-8.83c-5.35-3.73-12.18-1-12.47-.86a14.48,14.48,0,0,0-7.4,7.22c-2.46,5.39-.24,10.16.5,11.75a16.69,16.69,0,0,0,7.25,7.43,20.4,20.4,0,0,0,7.85,2.45c5.29.56,9.71-1,12.91-2.08,4.4-1.53,4.79-2.48,8.36-3.12a20.36,20.36,0,0,1,8,.1,19.17,19.17,0,0,1,5.92,2.52c3.16,2,3.09,3.32,5.35,4.39,2.89,1.37,6.06.7,8,.31,6.07-1.28,6.73-4.56,13.32-6.32a18.25,18.25,0,0,1,7.52-.64c4.17.6,6.81,2.74,9,4.55A29.23,29.23,0,0,1,1445.66,1018.11Z" transform="translate(0 -141.36)"/><path class="cls-15" d="M374.33,1127c23.19-4.75,30-11.49,31.34-17.34,1.2-5.41-2.43-9.63.66-14.66s8.93-4.07,15.34-10a26.89,26.89,0,0,0,6.66-10c2.2,1.53,11.41,7.61,22.67,5.33,14.08-2.85,23.48-17.14,23.33-30.67s-9.81-22-10.66-22.66c-9.4-7.9-20.37-7-24-6.67-2.8.23-13.48,1.13-21.34,9.33-6.54,6.83-11,18.66-9.33,29.34.67,4.18,2,7.46,0,10.66-2.17,3.53-5.66,2.52-11.17,6.84-1.81,1.42-6,4.67-7.33,9.83-.83,3.12.08,4.25.5,11.33a64.52,64.52,0,0,1,0,10.67C390.37,1112.2,387.73,1119.59,374.33,1127Z" transform="translate(0 -141.36)"/><path class="cls-15" d="M371.83,1126c1.72.54,11.85,3.57,21.84-2.17,1.36-.78,11.36-6.52,12.33-15.67.55-5.15-1.94-9.83,1.17-13.66a15.36,15.36,0,0,1,3.16-2.67,35.58,35.58,0,0,1,7.67-4c4.49-2.1,6.81-6.16,9-10,3.26-5.72,4.05-11.7,4.83-15.33.54-2.48.92-4.56,1.17-6a8.65,8.65,0,0,0,1,5c1.61,2.83,4.53,3.73,6.5,4.33s6.56,2,11.17-.5c6.32-3.44,6.65-11,6.66-11.33a14.13,14.13,0,0,0-4-10c-4.4-4.6-10.34-4.53-12.33-4.5a19.85,19.85,0,0,0-11,3.66,21.9,21.9,0,0,0-6.17,6.34c-3,4.72-3.49,9.52-3.83,13-.47,4.77.33,5.54-.67,9.16a20.26,20.26,0,0,1-3.83,7.5,20.78,20.78,0,0,1-5.33,4.5c-3.54,2.11-4.85,1.5-7,3.17-2.75,2.13-3.53,5.39-4,7.33-1.51,6.24,1.57,8.24.33,15.17a17.68,17.68,0,0,1-2.83,7.33c-2.55,3.66-6,5.23-8.84,6.5A35.77,35.77,0,0,1,371.83,1126Z" transform="translate(0 -141.36)"/><path class="cls-15" d="M447,943.36a39.77,39.77,0,0,1-2,24c-2,4.71-5.67,13.38-15,17-11.13,4.31-21.45-2-23-3-11.74-7.46-12.89-21-13-22.5,2.82-10.36,7.51-15.65,12-18.5,5.61-3.56,9.87-2.67,14-6.5,5.1-4.73,5.79-12.77,5-20.5a86.29,86.29,0,0,1,22,30Z" transform="translate(0 -141.36)"/><path class="cls-15" d="M426.5,915.36c11.74,18.46,11.74,25,9.5,27.5-2.54,2.86-7.67.2-14.5,4.5-1.65,1-6.81,4.29-8,10.5-1.46,7.6,4.25,13.26,4.5,13.5a15.74,15.74,0,0,0,15.5,3.5c7.23-2.34,9.92-9.68,11.5-14a32.67,32.67,0,0,0,1.5-16C444.12,927.9,429.93,917.69,426.5,915.36Z" transform="translate(0 -141.36)"/><path class="cls-15" d="M1301.67,905.56a35.82,35.82,0,0,0,16.41,11.63c4,1.33,11.39,3.78,18.32.17,8.27-4.3,9.29-13.81,9.42-15.25,1-11-7.1-18.84-8-19.74-8-3.86-13.76-3.9-17.81-2.75-5,1.42-6.59,4.43-11.08,4.84-5.56.5-11.06-3.39-15.64-8a70.25,70.25,0,0,0,3,16A73.3,73.3,0,0,0,1301.67,905.56Z" transform="translate(0 -141.36)"/><path class="cls-15" d="M1293.79,878.43c6.07,16.83,10.27,20.31,13,20.33,3.09,0,3.91-4.45,10-6.2,1.48-.43,6.12-1.75,10.69.86,5.61,3.19,6.43,9.6,6.46,9.88a11.47,11.47,0,0,1-5.4,11.07c-5.07,3-11.11.71-14.67-.66a29.46,29.46,0,0,1-11-7.65C1293.15,895.59,1293.6,881.72,1293.79,878.43Z" transform="translate(0 -141.36)"/><path class="cls-15" d="M345.67,1097.69" transform="translate(0 -141.36)"/><path class="cls-15" d="M1386.33,954.36c7.62,2.07,11.18,1.73,56.67,2.67,9.18.19,13.91.34,19.33,3.33,12.23,6.73,16.26,21.34,18,28,5.52,21.09-1,36.63,1.34,37.33,2.72.81,15.43-18.31,17.33-42.66.29-3.75,2.74-39.75-20-64-8.66-9.24-15.54-11-34.67-30-3.67-3.65-6.13-6.29-10.66-9.34-14.05-9.43-28.81-9.81-34-10-8.08-.28-22.67-.8-35.34,9.34a43.51,43.51,0,0,0-14.66,22.66c-.47,1.84-4.42,18.43,5.33,33.34C1363.62,948.2,1377.67,952,1386.33,954.36Z" transform="translate(0 -141.36)"/><path class="cls-16" d="M1448.33,915c-13.54-10.15-22.87-17.14-37.33-20.67-7.88-1.93-33.31-8.14-47.33,6.67-6.34,6.69-10.77,18.12-7.34,28.66,3.82,11.7,15.42,16.5,20.67,18.67,19.16,7.93,39.1.69,44.67-1.33,11.53-4.19,12.33-7.75,20-8,15.18-.5,26.82,13,30,16.66,16.07,18.63,14,42.6,13.33,48.67,2.88-10.62,7.83-35.33-4.67-58C1473.42,933.81,1463.74,926.56,1448.33,915Z" transform="translate(0 -141.36)"/><path class="cls-15" d="M403.14,1029.27c-3.55,5-5.87,6.51-32.81,29.19-5.44,4.58-8.21,7-10,11.46-4,10.13.9,21.18,3.19,26.17,7.25,15.8,19,22.28,17.92,23.88-1.24,1.82-18.49-3.9-31.85-18.13-2.05-2.19-21.58-23.4-20-49.54.59-10,3.86-14.37,5.85-35.51a50.81,50.81,0,0,1,1.75-11c3.73-12.7,12.44-20.11,15.48-22.74,4.72-4.1,13.26-11.51,26-11.36a35.1,35.1,0,0,1,20.21,7c1.2.92,11.9,9.32,13.5,23.33C413.74,1014.4,407.18,1023.6,403.14,1029.27Z" transform="translate(0 -141.36)"/><path class="cls-17" d="M346.05,1034.92c3.07-12.9,5.19-21.78,12.13-31,3.79-5,16-21.24,31.88-18.84,7.17,1.08,15.58,6,18.79,14.27,3.57,9.13-1,17.76-3.09,21.66-7.58,14.24-23.22,19.42-27.59,20.86-9.05,3-11.32,1.18-16.07,4.74-9.4,7.06-9.65,21.11-9.72,24.94-.35,19.4,12.91,33.32,16.37,36.76-7.06-5.21-22.43-18.18-26.27-38.35C340.35,1058.79,342.55,1049.58,346.05,1034.92Z" transform="translate(0 -141.36)"/><path class="cls-18" d="M594.79,970.18" transform="translate(0 -141.36)"/><path class="cls-19" d="M1209.86,403.12" transform="translate(0 -141.36)"/><path class="cls-20" d="M1264.67,1458.19" transform="translate(0 -141.36)"/><text class="cls-21" transform="translate(420.98 1269.05) rotate(6.7)">i<tspan class="cls-22" x="11.65" y="0">r</tspan><tspan class="cls-23" x="39.3" y="0">a</tspan><tspan class="cls-24" x="71.65" y="0">w</tspan><tspan class="cls-25" x="123.6" y="0">a</tspan><tspan x="157.85" y="0">n.io</tspan></text><path class="cls-26" d="M2067.07,1292.09q0,10.15-3.51,24.61T2047.14,1344q-12.9,12.92-37.11,21.88t-65.6,9q-41.43,0-64.85-9.77t-35.17-23.05q-11.72-13.27-14.44-27.35t-2.72-22.64V689q0-22.66-10.55-39.45t-35.55-16.8q-13.29,0-22.65,4.69a122.36,122.36,0,0,0-20.31,13.27l-16.42-19.52a434.69,434.69,0,0,1,40.24-29.3,310.73,310.73,0,0,1,48-25.39,346.64,346.64,0,0,1,55.48-18,270.76,270.76,0,0,1,62.49-7q50.77,0,78.91,13.68t41.4,33.58a97,97,0,0,1,16,42.59,340.35,340.35,0,0,1,2.74,39.83ZM1803,373.39a93.7,93.7,0,0,1,9.76-41.8,106.69,106.69,0,0,1,27.35-34.76,135.93,135.93,0,0,1,40.62-23.44q23-8.58,50.39-8.6a141.17,141.17,0,0,1,49.61,8.6A131.18,131.18,0,0,1,2021,296.83a109.26,109.26,0,0,1,26.94,34.76,95.2,95.2,0,0,1,0,84,106.26,106.26,0,0,1-26.94,34,135.3,135.3,0,0,1-40.24,23.05,140.94,140.94,0,0,1-49.61,8.59q-27.35,0-50.39-8.59a140.33,140.33,0,0,1-40.62-23.05,103.84,103.84,0,0,1-27.35-34A92.87,92.87,0,0,1,1803,373.39Z" transform="translate(0 -141.36)"/><path class="cls-26" d="M2513.14,716.33a642.46,642.46,0,0,1,63.28-82,422.79,422.79,0,0,1,30.46-30.46,293.28,293.28,0,0,1,34-26.56,178.21,178.21,0,0,1,36.32-18.75,106.33,106.33,0,0,1,37.5-7q39.84,0,62.49,23.83t22.67,66.79a298.58,298.58,0,0,1-4.3,51.18q-4.32,24.59-16.81,59.76h-21.87q-4.68-24.22-21.87-40.24t-50-16a132.28,132.28,0,0,0-47.64,9,294.62,294.62,0,0,0-45.72,22.26A400.08,400.08,0,0,0,2549.46,757q-19.9,15.63-36.32,29.69v507a114.39,114.39,0,0,1-3.13,24.21q-3.12,14.06-15.24,26.56t-35.93,21.49q-23.85,9-65.22,9t-65.24-9.77q-23.84-9.77-36.32-23.05t-15.62-27.35q-3.12-14.06-3.13-22.64V689q0-22.66-10.55-39.45t-35.55-16.8q-13.27,0-22.64,4.69a122.36,122.36,0,0,0-20.31,13.27l-16.42-19.52a434.69,434.69,0,0,1,40.24-29.3,310.73,310.73,0,0,1,48-25.39,346.51,346.51,0,0,1,55.47-18,270.84,270.84,0,0,1,62.5-7q33.59,0,57.42,9t39.06,23.44a110.12,110.12,0,0,1,23.83,32.42,178.22,178.22,0,0,1,12.88,36.32,194.2,194.2,0,0,1,5.07,35.15Q2513.12,704.64,2513.14,716.33Z" transform="translate(0 -141.36)"/><path class="cls-26" d="M3110.76,615.56a184.89,184.89,0,0,0-49.23,6.25q-22.65,6.26-39.06,15.63t-25.77,20.69q-9.37,11.36-9.37,21.49,0,11.71,12.11,16.8t26.95,11.71a90.14,90.14,0,0,1,26.94,18.75Q3065.44,739,3065.45,764a67.93,67.93,0,0,1-6.64,30.07,81.42,81.42,0,0,1-44.54,40.63,87.19,87.19,0,0,1-31.63,5.86q-43.76,0-70.69-29.69T2885,732q0-47.62,25-81.63t65.21-55.86q40.23-21.87,91-32.4a505.55,505.55,0,0,1,218,2.73q55.47,13.29,98.05,42.19a218.64,218.64,0,0,1,68,73.43q25.39,44.54,25.4,107.79v441.39q0,7,.77,15.63a49,49,0,0,0,3.92,15.62,29.34,29.34,0,0,0,9.37,11.71q6.26,4.68,18,4.68,14.05,0,26.17-10.53a208.39,208.39,0,0,0,21.49-21.48l19.52,16.39q-11.72,16.44-28.12,36a227,227,0,0,1-39.83,36.7q-23.45,17.19-54.69,28.92t-71.1,11.71q-49.22,0-87.49-29.3t-50-90.24q-25,33.62-51.94,56.27a281.75,281.75,0,0,1-55.07,36.7,242.63,242.63,0,0,1-56.66,20.32,267.81,267.81,0,0,1-57.4,6.25,228.91,228.91,0,0,1-72.66-11.71,173.24,173.24,0,0,1-62.88-37.12q-27.75-25.39-44.54-66t-16.78-99.21q0-71.08,28.12-116.4t73.82-76.16q45.69-30.84,103.89-52.73t119.15-46.11q45.32-17.93,66-53.5t20.69-73.05q0-57.81-34-92.57T3110.76,615.56ZM3235,957.73q0-19.53-12.5-29.68t-32-10.17a113.21,113.21,0,0,0-52,12.5q-24.61,12.5-43.36,36.73t-29.68,59.75q-10.93,35.57-10.94,82.43,0,45.3,6.64,75t18,47.26q11.33,17.6,26.16,24.61a72.07,72.07,0,0,0,31.27,7,74.46,74.46,0,0,0,38.27-10.53,114.28,114.28,0,0,0,31.24-27,134.75,134.75,0,0,0,21.11-36.72,112.61,112.61,0,0,0,7.81-40.62Z" transform="translate(0 -141.36)"/><path class="cls-26" d="M4631.77,799.14q0-51.57-7-85.15t-15.23-55.86q-8.22-22.25-15.24-36.7t-7-27q0-11.69,9.37-19.52a88.1,88.1,0,0,1,22.26-13.27,119.44,119.44,0,0,1,26.56-7.81,136.91,136.91,0,0,1,22.28-2.36q22.62,0,32.79,6.25T4716.92,582q7,22.68,9.76,59.78t2.74,79.28q0,60.18-7.05,132a1341.46,1341.46,0,0,1-22.25,144.53,1114.35,1114.35,0,0,1-39.07,140.62q-23.84,68-57.42,120.69t-77.33,84.37q-43.74,31.62-99.2,31.64-43.76,0-78.53-17.58a210.89,210.89,0,0,1-62.11-48q-27.35-30.46-48-71.48a651.59,651.59,0,0,1-36.32-87.88,620.6,620.6,0,0,1-41.41,88.67q-23.45,41-51.95,71.48t-62.88,47.65a163.65,163.65,0,0,1-74.22,17.19q-49.21,0-87.11-21.49t-66.8-58.58q-28.9-37.1-50-86.32a826.32,826.32,0,0,1-36.32-103.91q-15.23-54.69-25.38-112.5t-17.19-111.7q-7-53.89-11.71-100.78t-9.37-81.25q-5.51-31.25-16-48.43t-35.53-17.19c-8.88,0-16.42,1.56-22.67,4.69a122.36,122.36,0,0,0-20.31,13.27l-16.39-19.52a435.44,435.44,0,0,1,40.21-29.3,312.79,312.79,0,0,1,48-25.39,346.64,346.64,0,0,1,55.48-18,270.76,270.76,0,0,1,62.49-7q46.88,0,75.77,16t45.7,39.85a156,156,0,0,1,23.82,51.18,461,461,0,0,1,10.16,49.21q14.07,118,27.74,207.8t29.3,150.37q15.63,60.57,34,91.41t43.36,30.85q16.41,0,32-14.06t29.69-39.06q14.05-25,26.56-60.53A663.4,663.4,0,0,0,4163.05,996q-7.81-42.93-13.29-85.14T4140,830q-4.31-38.65-8.22-72.26t-8.58-59.37q-11.71-73.43,13.68-110.14t101.94-36.73q33.59,0,56.63,5.87t38.29,21.87q15.23,16,24.61,43.75t14.84,70.69Q4388,810.86,4402.1,903.05t29.69,155.47q15.61,63.27,34,96.46t43.37,33.2q26.55,0,49.2-32.81t39.06-86.71q16.41-53.9,25.41-124.22A1147.52,1147.52,0,0,0,4631.77,799.14Z" transform="translate(0 -141.36)"/><path class="cls-26" d="M5101.27,615.56a185,185,0,0,0-49.23,6.25q-22.65,6.26-39.06,15.63t-25.77,20.69q-9.37,11.36-9.37,21.49,0,11.71,12.11,16.8t26.95,11.71a90.31,90.31,0,0,1,27,18.75Q5055.94,739,5056,764a67.93,67.93,0,0,1-6.64,30.07,81.36,81.36,0,0,1-44.53,40.63,87.28,87.28,0,0,1-31.64,5.86q-43.74,0-70.69-29.69T4875.51,732q0-47.62,25-81.63t65.22-55.86q40.22-21.87,91-32.4a505.6,505.6,0,0,1,218,2.73q55.46,13.29,98,42.19a218.64,218.64,0,0,1,68,73.43q25.4,44.54,25.4,107.79v441.39q0,7,.77,15.63a49.3,49.3,0,0,0,3.92,15.62,29.34,29.34,0,0,0,9.37,11.71q6.26,4.68,18,4.68,14.07,0,26.18-10.53a209.26,209.26,0,0,0,21.48-21.48l19.53,16.39q-11.73,16.44-28.13,36a227,227,0,0,1-39.83,36.7q-23.43,17.19-54.68,28.92t-71.1,11.71q-49.21,0-87.5-29.3t-50-90.24q-25,33.62-51.94,56.27a281.75,281.75,0,0,1-55.07,36.7,242.56,242.56,0,0,1-56.65,20.32,268,268,0,0,1-57.41,6.25,228.91,228.91,0,0,1-72.66-11.71,173.24,173.24,0,0,1-62.88-37.12q-27.75-25.39-44.54-66t-16.78-99.21q0-71.08,28.12-116.4t73.82-76.16q45.69-30.84,103.89-52.73t119.15-46.11q45.31-17.93,66-53.5t20.69-73.05q0-57.81-34-92.57T5101.27,615.56Zm124.22,342.17q0-19.53-12.5-29.68t-32-10.17a113.14,113.14,0,0,0-51.94,12.5q-24.63,12.5-43.37,36.73T5056,1026.86q-10.94,35.57-10.94,82.43,0,45.3,6.64,75t18,47.26q11.31,17.6,26.15,24.61a72.1,72.1,0,0,0,31.27,7,74.46,74.46,0,0,0,38.27-10.53,114.32,114.32,0,0,0,31.25-27,135,135,0,0,0,21.1-36.72,112.4,112.4,0,0,0,7.81-40.62Z" transform="translate(0 -141.36)"/><path class="cls-26" d="M6130.13,973.35q0-98.43-9-157.41t-23.84-89.83q-14.85-30.84-32.81-40.62t-36.71-9.78q-22.65,0-40.24,12.11a147.87,147.87,0,0,0-30.46,27.74,225.53,225.53,0,0,0-21.87,31.25q-9,15.62-15.24,23.43v521.85a119.75,119.75,0,0,1-3.12,24.61q-3.14,14.46-15.24,27.33t-35.94,21.88q-23.84,9-65.21,9t-65.24-9.77q-23.84-9.77-36.32-23.05t-15.62-27.35q-3.14-14.06-3.13-22.64V689q0-22.66-10.55-39.45t-35.55-16.8q-13.28,0-22.64,4.69a122.82,122.82,0,0,0-20.32,13.27l-16.41-19.52a433.35,433.35,0,0,1,40.24-29.3,310.73,310.73,0,0,1,48-25.39,346.19,346.19,0,0,1,55.47-18,270.78,270.78,0,0,1,62.5-7q50.78,0,78.91,16.8t41.39,40.22a125.26,125.26,0,0,1,16,48.84,410.7,410.7,0,0,1,2.74,42.57,426.79,426.79,0,0,1,65.62-74.22,326.27,326.27,0,0,1,33.2-27.33,293,293,0,0,1,39.06-23.83,228.22,228.22,0,0,1,43.75-16.8,180,180,0,0,1,47.28-6.25q53.11,0,94.13,20.32t69.13,68q28.13,47.65,42.95,126.15T6370,960.86q0,113.26-20.31,196.86t-53.13,142.18q-32.81,58.59-74.22,95.69t-83.58,58.22q-42.18,21.06-80.86,29.28t-66.78,9l-8.6-32a154.88,154.88,0,0,0,43.36-17.17q19.91-11.74,36.32-34.37t28.92-57.43q12.49-34.77,21.46-87.11t13.29-123.81Q6130.11,1068.68,6130.13,973.35Z" transform="translate(0 -141.36)"/></g></svg>